<?xml version="1.0" encoding="UTF-8" standalone="no"?>
<!DOCTYPE svg PUBLIC "-//W3C//DTD SVG 1.1//EN"
 "http://www.w3.org/Graphics/SVG/1.1/DTD/svg11.dtd">
<!-- Generated by graphviz version 2.43.0 (0)
 -->
<!-- Title: sourcetree Pages: 1 -->
<svg width="447pt" height="116pt"
 viewBox="0.00 0.00 446.50 116.00" xmlns="http://www.w3.org/2000/svg" xmlns:xlink="http://www.w3.org/1999/xlink">
<g id="graph0" class="graph" transform="scale(1 1) rotate(0) translate(4 112)">
<title>sourcetree</title>
<polygon fill="white" stroke="transparent" points="-4,4 -4,-112 442.5,-112 442.5,4 -4,4"/>
<!-- mulle&#45;markdown -->
<g id="node1" class="node">
<title>mulle&#45;markdown</title>
<polygon fill="yellow" stroke="black" points="275,-108 139,-108 139,-72 275,-72 275,-108"/>
<text text-anchor="middle" x="207" y="-86.3" font-family="Times,serif" font-size="14.00">mulle&#45;markdown</text>
</g>
<!-- MulleHoedown -->
<g id="node2" class="node">
<title>MulleHoedown</title>
<polygon fill="lightgrey" stroke="black" points="124,-36 0,-36 0,0 124,0 124,-36"/>
<text text-anchor="middle" x="62" y="-14.3" font-family="Times,serif" font-size="14.00">MulleHoedown</text>
</g>
<!-- mulle&#45;markdown&#45;&gt;MulleHoedown -->
<g id="edge1" class="edge">
<title>mulle&#45;markdown&#45;&gt;MulleHoedown</title>
<path fill="none" stroke="black" d="M171.53,-71.88C151.88,-62.39 127.28,-50.51 106.37,-40.42"/>
<polygon fill="black" stroke="black" points="107.88,-37.26 97.36,-36.07 104.84,-43.57 107.88,-37.26"/>
</g>
<!-- mulle&#45;objc&#45;musl -->
<g id="node3" class="node">
<title>mulle&#45;objc&#45;musl</title>
<polygon fill="lightgrey" stroke="black" points="271.5,-36 142.5,-36 142.5,0 271.5,0 271.5,-36"/>
<text text-anchor="middle" x="207" y="-14.3" font-family="Times,serif" font-size="14.00">mulle&#45;objc&#45;musl</text>
</g>
<!-- mulle&#45;markdown&#45;&gt;mulle&#45;objc&#45;musl -->
<g id="edge2" class="edge">
<title>mulle&#45;markdown&#45;&gt;mulle&#45;objc&#45;musl</title>
<path fill="none" stroke="black" d="M207,-71.7C207,-63.98 207,-54.71 207,-46.11"/>
<polygon fill="black" stroke="black" points="210.5,-46.1 207,-36.1 203.5,-46.1 210.5,-46.1"/>
</g>
<!-- MulleObjC&#45;startup -->
<g id="node4" class="node">
<title>MulleObjC&#45;startup</title>
<polygon fill="lightgrey" stroke="black" points="438.5,-36 289.5,-36 289.5,0 438.5,0 438.5,-36"/>
<text text-anchor="middle" x="364" y="-14.3" font-family="Times,serif" font-size="14.00">MulleObjC&#45;startup</text>
</g>
<!-- mulle&#45;markdown&#45;&gt;MulleObjC&#45;startup -->
<g id="edge3" class="edge">
<title>mulle&#45;markdown&#45;&gt;MulleObjC&#45;startup</title>
<path fill="none" stroke="black" d="M245.41,-71.88C266.87,-62.31 293.8,-50.3 316.57,-40.15"/>
<polygon fill="black" stroke="black" points="318.01,-43.34 325.72,-36.07 315.16,-36.94 318.01,-43.34"/>
</g>
</g>
</svg>
