<?xml version="1.0" encoding="UTF-8" standalone="no"?>
<!DOCTYPE svg PUBLIC "-//W3C//DTD SVG 1.1//EN"
 "http://www.w3.org/Graphics/SVG/1.1/DTD/svg11.dtd">
<!-- Generated by graphviz version 2.43.0 (0)
 -->
<!-- Title: sourcetree Pages: 1 -->
<svg width="912pt" height="116pt"
 viewBox="0.00 0.00 912.00 116.00" xmlns="http://www.w3.org/2000/svg" xmlns:xlink="http://www.w3.org/1999/xlink">
<g id="graph0" class="graph" transform="scale(1 1) rotate(0) translate(4 112)">
<title>sourcetree</title>
<polygon fill="white" stroke="transparent" points="-4,4 -4,-112 908,-112 908,4 -4,4"/>
<!-- mulle&#45;markdown -->
<g id="node1" class="node">
<title>mulle&#45;markdown</title>
<polygon fill="yellow" stroke="black" points="560.5,-108 424.5,-108 424.5,-72 560.5,-72 560.5,-108"/>
<text text-anchor="middle" x="492.5" y="-86.3" font-family="Times,serif" font-size="14.00">mulle&#45;markdown</text>
</g>
<!-- mulle&#45;cosmopolitan -->
<g id="node2" class="node">
<title>mulle&#45;cosmopolitan</title>
<polygon fill="lightgrey" stroke="black" points="155,-36 0,-36 0,0 155,0 155,-36"/>
<text text-anchor="middle" x="77.5" y="-14.3" font-family="Times,serif" font-size="14.00">mulle&#45;cosmopolitan</text>
</g>
<!-- mulle&#45;markdown&#45;&gt;mulle&#45;cosmopolitan -->
<g id="edge1" class="edge">
<title>mulle&#45;markdown&#45;&gt;mulle&#45;cosmopolitan</title>
<path fill="none" stroke="black" d="M424.33,-78.74C359.99,-68.89 260.56,-53.25 165.38,-36.31"/>
<polygon fill="black" stroke="black" points="165.75,-32.82 155.29,-34.51 164.52,-39.71 165.75,-32.82"/>
</g>
<!-- mulle&#45;cosmopolitan&#45;cc -->
<g id="node3" class="node">
<title>mulle&#45;cosmopolitan&#45;cc</title>
<polygon fill="lightgrey" stroke="black" points="348,-36 173,-36 173,0 348,0 348,-36"/>
<text text-anchor="middle" x="260.5" y="-14.3" font-family="Times,serif" font-size="14.00">mulle&#45;cosmopolitan&#45;cc</text>
</g>
<!-- mulle&#45;markdown&#45;&gt;mulle&#45;cosmopolitan&#45;cc -->
<g id="edge2" class="edge">
<title>mulle&#45;markdown&#45;&gt;mulle&#45;cosmopolitan&#45;cc</title>
<path fill="none" stroke="black" d="M436.04,-71.97C403.2,-62.06 361.63,-49.51 327.19,-39.12"/>
<polygon fill="black" stroke="black" points="327.79,-35.65 317.21,-36.11 325.77,-42.35 327.79,-35.65"/>
</g>
<!-- MulleHoedown -->
<g id="node4" class="node">
<title>MulleHoedown</title>
<polygon fill="lightgrey" stroke="black" points="490.5,-36 366.5,-36 366.5,0 490.5,0 490.5,-36"/>
<text text-anchor="middle" x="428.5" y="-14.3" font-family="Times,serif" font-size="14.00">MulleHoedown</text>
</g>
<!-- mulle&#45;markdown&#45;&gt;MulleHoedown -->
<g id="edge3" class="edge">
<title>mulle&#45;markdown&#45;&gt;MulleHoedown</title>
<path fill="none" stroke="black" d="M476.68,-71.7C468.93,-63.22 459.46,-52.86 450.98,-43.58"/>
<polygon fill="black" stroke="black" points="453.47,-41.12 444.14,-36.1 448.3,-45.85 453.47,-41.12"/>
</g>
<!-- mulle&#45;musl -->
<g id="node5" class="node">
<title>mulle&#45;musl</title>
<polygon fill="lightgrey" stroke="black" points="604,-36 509,-36 509,0 604,0 604,-36"/>
<text text-anchor="middle" x="556.5" y="-14.3" font-family="Times,serif" font-size="14.00">mulle&#45;musl</text>
</g>
<!-- mulle&#45;markdown&#45;&gt;mulle&#45;musl -->
<g id="edge4" class="edge">
<title>mulle&#45;markdown&#45;&gt;mulle&#45;musl</title>
<path fill="none" stroke="black" d="M508.32,-71.7C516.07,-63.22 525.54,-52.86 534.02,-43.58"/>
<polygon fill="black" stroke="black" points="536.7,-45.85 540.86,-36.1 531.53,-41.12 536.7,-45.85"/>
</g>
<!-- mulle&#45;musl&#45;cc -->
<g id="node6" class="node">
<title>mulle&#45;musl&#45;cc</title>
<polygon fill="lightgrey" stroke="black" points="737,-36 622,-36 622,0 737,0 737,-36"/>
<text text-anchor="middle" x="679.5" y="-14.3" font-family="Times,serif" font-size="14.00">mulle&#45;musl&#45;cc</text>
</g>
<!-- mulle&#45;markdown&#45;&gt;mulle&#45;musl&#45;cc -->
<g id="edge5" class="edge">
<title>mulle&#45;markdown&#45;&gt;mulle&#45;musl&#45;cc</title>
<path fill="none" stroke="black" d="M538.25,-71.88C564.26,-62.14 597.03,-49.87 624.45,-39.61"/>
<polygon fill="black" stroke="black" points="625.76,-42.85 633.9,-36.07 623.31,-36.3 625.76,-42.85"/>
</g>
<!-- MulleObjC&#45;startup -->
<g id="node7" class="node">
<title>MulleObjC&#45;startup</title>
<polygon fill="lightgrey" stroke="black" points="904,-36 755,-36 755,0 904,0 904,-36"/>
<text text-anchor="middle" x="829.5" y="-14.3" font-family="Times,serif" font-size="14.00">MulleObjC&#45;startup</text>
</g>
<!-- mulle&#45;markdown&#45;&gt;MulleObjC&#45;startup -->
<g id="edge6" class="edge">
<title>mulle&#45;markdown&#45;&gt;MulleObjC&#45;startup</title>
<path fill="none" stroke="black" d="M560.7,-74.83C613.86,-63.79 687.96,-48.4 744.9,-36.57"/>
<polygon fill="black" stroke="black" points="745.88,-39.94 754.96,-34.48 744.46,-33.09 745.88,-39.94"/>
</g>
</g>
</svg>
